<svg xmlns="http://www.w3.org/2000/svg" width="275px" height="201.5px" viewBox="0 0 275 202">
  <path fill="#00C38E" d="M248 106s-30 28-36 24c-6-5-16-22-29-22-12 1 21 49 21 49s36-18 51-34c1-7 1-11-7-17z"/>
  <path fill="#00926B" d="M247 130s-8 1-12-13l8-6 12 12-8 7z"/>
  <path fill="#9CF" d="M262 135l-10-45c6-3 9-11 7-20-2-11-9-18-17-17-7 1-12 11-10 22 1 9 7 16 14 17l10 45c0 2 2 4 4 3 2 0 3-2 2-5z"/>
  <path fill="#7399BF" d="M253 126l7-1-1-5-7 2z"/>
  <path fill="#FC9" d="M241 118c0 4 5 7 9 6l10-1c4-1 7-6 6-10l-1-6c-1-4-5-7-10-6l-9 1c-5 1-8 6-7 10l2 6z"/>
  <path fill="#FC9" d="M241 106s-2-6 2-7l4-1 1 5-7 3z"/>
  <path fill="#00C38E" d="M24 106s29 28 35 24c6-5 17-22 29-22 12 1-20 48-20 48s-37-17-52-33c0-7-1-11 8-17z"/>
  <path fill="#CFF" d="M96 102s-26 8-35 42c-10 33-17 38-17 38s80 31 183-3c-9-14-17-23-21-41-4-17-19-34-33-36s-77 0-77 0z"/>
  <path fill="#99BFBF" d="M149 121c0-5-3-10-9-10s-10 5-10 10c-5 2-17 6-17 20 5 1 16-1 21-12a13 13 0 0 0 11 1c6 10 16 12 22 11 0-14-12-19-18-20z"/>
  <path fill="#CFF" d="M133 119s-16 1-16 18c6 1 17-2 21-17l-5-1zm13 0s17 2 17 18c-6 1-18-3-21-17l4-1z"/>
  <ellipse fill="#99BFBF" cx="139.743" cy="122.671" rx="9.626" ry="8.202"/>
  <ellipse fill="#CFF" cx="139.743" cy="119.647" rx="9.626" ry="8.202"/>
  <path opacity="0.5" fill="#99BFBF" d="M91 104s39 55 95 4l-7-5-81-1-7 2z"/>
  <path fill="#312A20" d="M80 61s-6-16 1-29l3 4 1-11 6 5s-1-8 2-12l4 5s-1-6 3-11l3 8s-1-6 3-10l5 6s-1-4 5-9l2 6s3-7 12-8c-2 3-2 8-2 8s5-6 11-8v8c1-2 5-6 12-6l-2 6s3-5 10-5l-2 8s1-4 9-5c-1 2-3 5-2 6l5-4s3 3 3 6c3-1 3-4 3-4s5 4 4 8c1-1 5-3 5-6 1 3 2 10-1 13 3-1 5-1 7-3l-2 7c0 1 5 0 6-3 1 2 1 4-1 9 1 0 6-1 7-5 1 3 2 9-2 15 2-2 7-5 6-6 1 2 0 12-5 17-5 6-119 0-119 0z"/>
  <ellipse fill="#FC9" cx="139.743" cy="69.18" rx="60.059" ry="48.66"/>
  <circle fill="#FC9" cx="199.803" cy="72.238" r="10.844"/>
  <circle fill="#FC9" cx="79.684" cy="72.238" r="10.844"/>
  <path opacity="0.4" fill="#BF9973" d="M106 54s-7-8 1-11a77 77 0 0 1 57-3c9 4 8 10 6 13-3-1-28-16-64 1z"/>
  <path fill="#FFF" d="M110 53s-3-3 1-7c4-3 13-3 18 1l-19 6z"/>
  <circle cx="117.646" cy="48.943" r="2.094"/>
  <circle fill="#FFF" cx="117.18" cy="47.979" r="0.619"/>
  <path fill="#FFF" d="M167 51s3-2-1-6-13-3-18 1l19 5z"/>
  <circle cx="159.221" cy="47.58" r="2.093"/>
  <circle fill="#FFF" cx="159.687" cy="46.615" r="0.62"/>
  <path fill="#FFD6AD" d="M98 60a65 65 0 0 1 19-11 78 78 0 0 1 22-4 63 63 0 0 1 22 4c7 2 13 6 18 11l-19-10a64 64 0 0 0-32-1 92 92 0 0 0-30 11z"/>
  <path fill="#312A20" d="M120 37l-1 2-10 3-1-1 1-1 10-3h1zm50 4l-2 1-10-3v-1l1-1 10 3 1 1z"/>
  <path opacity="0.4" fill="#BF9973" d="M130 51c4 3 4 6 8 6s4-3 9-6c4-1-4-3-9-3s-12 1-8 3z"/>
  <path fill="#FC9" d="M130 49c4-4 4-9 8-9s4 5 9 9c4 2-4 4-9 4s-12-2-8-4z"/>
  <path opacity="0.4" fill="#604D3A" d="M136 47s-5 2-4 4c0 2 4 1 4-4zm5 0s5 2 4 4c0 2-4 1-4-4z"/>
  <path opacity="0.4" fill="#BF9973" d="M164 99c-8-1-10-9-26-8-15 1-29 10-37 7S83 83 82 83c7 20 30 35 58 35 27 0 50-15 57-35a30 30 0 0 1-33 16z"/>
  <path fill="#BF9973" d="M80 66s-8 0-7 7l3 4s-3-7 4-11z"/>
  <path fill="#00926B" d="M24 130s9 1 12-13l-7-6-12 12 7 7z"/>
  <path fill="#9CF" d="M36 59l-5 23h-3l5-22v-2l-2 2-5 21h-3l5-22v-3l-2 3-5 21h-2l5-24-3 3-5 24v1c-1 2 1 4 3 4l1 1-11 46c0 3 1 5 3 5 1 1 3-1 4-3l10-47h1c2 1 4-1 5-3l5-24c1-2-1-4-1-4z"/>
  <path fill="#7399BF" d="M12 126l6 1 1-4-6-2z"/>
  <path fill="#BF9973" d="M199 66s7 0 7 7c-2 4-4 4-4 4s3-7-3-11z"/>
  <path fill="#FC9" d="M31 118c-1 4-5 7-9 6l-10-1c-5-1-7-6-7-10l2-6c0-5 5-7 9-7l10 2c4 1 7 5 6 10l-1 6z"/>
  <path fill="#FC9" d="M31 106s2-6-3-7l-4-1-1 5 8 3z"/>
  <path fill="#7399BF" d="M238 75s-4-10 2-15c7-4 14 1 15 10-2-2-4-10-12-8-7 1-5 13-5 13z"/>
</svg>
