<svg version="1" xmlns="http://www.w3.org/2000/svg" width="161" height="144">
  <path fill="#99993D" d="M6 125c-2 0-4-2-4-4s0-5 3-4l-2-6c0-3 2-2 4-3 4-2 2-7 7-6 1-2-2-5-1-7 0-2 3-1 5-2l1-4c1-1 4-3 6-2 0-3-3-4-1-7 1-1 4 0 4-3-1-2-3-2-2-5 0-2 1-2 3-3 0-2-3-2-1-5 1-1 5-2 5 0 1 0 4-5 5-2l3-4h4c1-3-3-6-2-8s4-2 6-3c0-2-3-3 0-5 2-1 4 2 4-2 1-2 0-4 2-6 2-1 5 1 6-2 1-4-7-9 0-11h2v-4c0-3 2-1 4-3l1-4c2-2 8-8 12-2l2 4 7-2c5 1 4 5 4 8l3-1c6-1 5 2 5 3 0 2 1 3-1 5 1 2 5 0 7 2 2 3-1 6-1 8l3 1v5c3-1 6 1 7 4 1 4-3 6-3 10l1 3h3l2 2c2 2 2 2 2 5l-1 6c4 1 6 0 5 5 4-1 6 3 6 6 1 3-1 4-2 7 0 6 10 1 7 8 2 1 4 1 5 3v5c2 2 4 1 5 5 1 2-2 3-1 5l6 3c2 1 3 2 2 5 1 1 7 1 7 6l-7 4c-3 3-9 3-13 4l-19 2H95c-13 2-27 2-40 2-11 0-22 1-33-1l-12-3-6-3c-2-3 1-6 2-8"/>
  <path fill="#960" d="M23 58s2 12 9 17c7 0 17-7 20-15-4-2-7-8-21-9-11-2-8 7-8 7z"/>
  <path fill="#CFCFCF" d="M25 55s2 0 3-3l-8-8s4-3 0-6-6 2-5 3c-2 0-4-1-5 1 0 2 0 7 5 4l10 9z"/>
  <path fill="#734D00" d="M32 75c5 0 11-3 15-8-20 9-24-12-24-12v3s2 12 9 17z"/>
  <path fill="#960" d="M136 69s1 11-7 18c-8 0-21-9-24-19 2-3 7-7 15-9 14-2 16 10 16 10z"/>
  <path fill="#CFCFCF" d="M133 66s-4 0-5-4l8-12s-6-2-2-7c4-4 8 1 7 3 2-1 5-2 6 0s2 9-4 6l-10 14z"/>
  <path fill="#734D00" d="M129 87c-6 0-13-4-18-10 24 11 23-13 23-13s8 11-5 23z"/>
  <path fill="#737326" d="M50 103l-1-1-2-2h-4a8 8 0 0 0-3 1v1l-3-1-3 1-2 3v3l-3-1-1 1-2 1-1 3v3l1-3 1-2 2-1h3l1 1v-4l2-3h5l2 1-1-1v-1h1l2-1h3l2 3 1 3v-4zm32-44v-2l-1-2-4-2a8 8 0 0 0-3 0l-2-2h-4l-3 2-2 2-2-1-1-1-2 1-2 2-2 3 2-3 2-1h3l2 1 1 1v-1l2-2 2-2h3l2 2 1 2v-2h3l3 1 1 3-1 4 2-3zm4 39l5-1 3 1a7 7 0 0 1 2 1l4-2 5 2c2 1 3 2 3 4l1 3h6l2 2 2 4v5l-1-5-2-3c-1-1-3-2-4-1l-4 1-1 1v-2l-1-4c0-2-1-3-2-3l-4-1-4 1-3 2 2-2-1-1h-1l-2-1h-5v-1z"/>
  <ellipse fill="#737326" cx="102" cy="48" rx="5" ry="4"/>
  <ellipse fill="#737326" cx="96" cy="44" rx="1" ry="1"/>
  <ellipse fill="#737326" cx="108" cy="52" rx="1" ry="1"/>
  <ellipse fill="#737326" cx="104" cy="55" rx="2" ry="2"/>
</svg>
