<svg xmlns="http://www.w3.org/2000/svg" width="187px" height="75.052px" viewBox="0 0 187 75">
  <path fill="#1D2630" d="M103 27c-20 0-56-3-60-14-21 1-32 4-32 7 0 4 35 9 83 9 49 0 84-5 84-9 0-3-14-7-40-8-5 10-20 15-35 15z"/>
  <ellipse fill="#2D4444" cx="93.35" cy="34.402" rx="90.367" ry="10.149"/>
  <path fill="#BABACC" d="M94 30c-40 0-84-4-84-10 0-4 14-4 34-6 14-1 48 12 66 12 14 0 27-4 29-15 23 1 40 4 40 9 0 6-44 10-85 10zm-23-9c-20 0-14-7-28-5-20 1-32 1-32 4 0 4 35 9 83 9 49 0 84-5 84-9 0-3-13-5-39-7-8 27-53 8-68 8z"/>
  <path fill="#2D4444" d="M19 39l-4 1 3 1-1 1 4 1c3 1 2 2 7 2 1 1-2 1-2 2h5l2 1 5 1c0 1-2 1-1 2 2 0 5 0 4 1l-2 1 4 1s-3 0-1 1h5c1 0 3 2 5 1l2 1h4c1 1-3 1-1 2l5 1c1 0-2 1 0 1l5 1 1 1 6 1c1 1-6 2 0 3h3l-1 1 5 1 1 1c2 0 7 2 12 0l1-1 8 1c4-1 3-2 4-3l2 1 6-1-1-1 6-1c2-1 0-2-1-2h3c0-1 2-1 1-2l6-1c1-1-2-1-3-2l2-1h2l2-1 3-1-1-2c4 0 5 0 4-1 4 0 6-1 7-2l-2-1c0-2 9-1 7-3h5c1-1 0-2-1-2l6-1-2-1 6-1c2-1 3-1 2-2l7-1-7-1-13-1-18-1h-26l-40-1-34 1a197 197 0 0 0-17 1c-2 1 1 2 1 3"/>
  <ellipse transform="rotate(6 94 26)" fill="#737326" cx="94.241" cy="25.643" rx="20.787" ry="12.999"/>
  <ellipse transform="rotate(6 154 20)" fill="#737326" cx="154.348" cy="19.538" rx="20.787" ry="12.999"/>
  <ellipse transform="rotate(20 29 16)" fill="#737326" cx="29.227" cy="15.963" rx="14.973" ry="12.999"/>
  <path fill="#56561D" d="M78 15c2 7 2 16-9 19-11 4-30-1-32-8s6-15 17-18 22 0 24 7zm63 6c1 5 2 13-5 14-7 2-20-2-21-7-2-5 3-11 10-13s14 0 16 6z"/>
  <path fill="#ABC2D9" d="M94 29c-46 0-83-5-83-10 0 0-3 6 2 9l6 6s73 17 149 0c2-3 10-5 11-14h-1c-4 4-40 9-84 9z"/>
</svg>
